<?xml version="1.0" standalone="no"?>
<!DOCTYPE svg PUBLIC "-//W3C//DTD SVG 20010904//EN"
 "http://www.w3.org/TR/2001/REC-SVG-20010904/DTD/svg10.dtd">
<svg version="1.0" xmlns="http://www.w3.org/2000/svg"
 width="16.000000pt" height="16.000000pt" viewBox="0 0 16.000000 16.000000"
 preserveAspectRatio="xMidYMid meet">
<metadata>
Created by potrace 1.11, written by Peter Selinger 2001-2013
</metadata>
<g transform="translate(0.000000,16.000000) scale(0.006154,-0.006154)"
fill="#000000" stroke="none">
<path d="M0 1300 l0 -1300 1300 0 1300 0 0 1300 0 1300 -1300 0 -1300 0 0
-1300z m620 855 l0 -115 95 0 95 0 0 115 0 115 65 0 65 0 0 -295 0 -295 -65 0
-65 0 0 120 0 120 -95 0 -95 0 0 -120 0 -120 -70 0 -70 0 0 295 0 295 70 0 70
0 0 -115z m228 -556 c65 -32 99 -66 135 -133 18 -34 22 -57 22 -141 0 -84 -3
-107 -22 -142 -30 -55 -84 -107 -142 -135 -66 -32 -187 -32 -253 0 -183 90
-225 350 -80 497 89 90 224 112 340 54z m-76 -645 c58 -19 120 -73 155 -131
22 -37 28 -62 31 -130 4 -78 2 -88 -27 -148 -33 -68 -81 -113 -148 -142 -26
-11 -77 -18 -165 -21 l-128 -4 0 296 0 296 118 0 c81 0 133 -5 164 -16z"/>
<path d="M665 1495 c-125 -45 -140 -252 -23 -326 25 -15 45 -19 84 -16 88 6
133 58 141 161 4 50 0 69 -19 106 -37 71 -110 101 -183 75z"/>
<path d="M630 680 l0 -180 28 0 c16 0 48 10 72 23 78 41 110 139 75 224 -27
65 -65 94 -137 107 l-38 7 0 -181z"/>
</g>
</svg>
