<?xml version="1.0" encoding="UTF-8" standalone="no"?>
<svg
   xmlns:dc="http://purl.org/dc/elements/1.1/"
   xmlns:cc="http://creativecommons.org/ns#"
   xmlns:rdf="http://www.w3.org/1999/02/22-rdf-syntax-ns#"
   xmlns:svg="http://www.w3.org/2000/svg"
   xmlns="http://www.w3.org/2000/svg"
   xmlns:sodipodi="http://sodipodi.sourceforge.net/DTD/sodipodi-0.dtd"
   xmlns:inkscape="http://www.inkscape.org/namespaces/inkscape"
   version="1.1"
   x="0px"
   y="0px"
   viewBox="0 0 48.996216 48.996643"
   xml:space="preserve"
   id="svg843"
   sodipodi:docname="chip4.svg"
   inkscape:version="1.0beta2 (2b71d25, 2019-12-03)"
   width="48.996216"
   height="48.996643"
   inkscape:export-filename="/Users/ding0057/play/cdinger.github.com/images/chip4_32.png"
   inkscape:export-xdpi="62.698174"
   inkscape:export-ydpi="62.698174"><metadata
     id="metadata849"><rdf:RDF><cc:Work
         rdf:about=""><dc:format>image/svg+xml</dc:format><dc:type
           rdf:resource="http://purl.org/dc/dcmitype/StillImage" /><dc:title></dc:title></cc:Work></rdf:RDF></metadata><defs
     id="defs847" /><sodipodi:namedview
     inkscape:pagecheckerboard="true"
     pagecolor="#ffffff"
     bordercolor="#666666"
     inkscape:document-rotation="0"
     borderopacity="1"
     objecttolerance="10"
     gridtolerance="10"
     guidetolerance="10"
     inkscape:pageopacity="0"
     inkscape:pageshadow="2"
     inkscape:window-width="1976"
     inkscape:window-height="1318"
     id="namedview845"
     showgrid="false"
     inkscape:zoom="13.906667"
     inkscape:cx="19.500505"
     inkscape:cy="31.782628"
     inkscape:window-x="266"
     inkscape:window-y="25"
     inkscape:window-maximized="0"
     inkscape:current-layer="svg843"
     fit-margin-top="0.5"
     fit-margin-bottom="0.5"
     fit-margin-right="0.5"
     fit-margin-left="0.5" /><path
     style="fill:#000001;fill-opacity:1"
     d="m 48.496216,14.909973 v -3.839966 c 0,-0.260009 -0.09998,-0.520019 -0.289978,-0.710022 L 38.636231,0.789978 C 38.446228,0.5999756 38.196228,0.5 37.926209,0.5 h -3.840027 c -0.259949,0 -0.509949,0.099976 -0.699951,0.289978 l -6.110047,6.110046 14.820007,14.819947 6.110047,-6.109986 c 0.190002,-0.179992 0.289978,-0.440002 0.289978,-0.700012 z m -8.280029,-2.97998 c -0.869995,0.869995 -2.279969,0.869995 -3.149964,0 -0.869995,-0.869996 -0.869995,-2.279969 0,-3.149964 0.869995,-0.870056 2.279969,-0.870056 3.149964,0 0.869995,0.869995 0.869995,2.279968 0,3.149964 z"
     id="path833"
     inkscape:connector-curvature="0" /><path
     style="fill:#000001;fill-opacity:1"
     d="m 0.79296875,32.96051 c 0.1953125,0.195313 0.45117195,0.292969 0.70703135,0.292969 0.2558594,0 0.5117188,-0.09766 0.7070313,-0.292969 l 4.3552856,-4.354431 2.396484,2.396484 -4.3552851,4.354432 c -0.3906252,0.390625 -0.3906252,1.023437 0,1.414062 0.195312,0.195313 0.451172,0.292969 0.707031,0.292969 0.25586,0 0.511719,-0.09766 0.7070311,-0.292969 l 4.355286,-4.354431 2.396545,2.396545 -4.355346,4.355347 c -0.390625,0.390625 -0.390625,1.023437 0,1.414062 0.195312,0.195313 0.451172,0.292969 0.707031,0.292969 0.255859,0 0.511719,-0.09766 0.707031,-0.292969 l 4.355347,-4.355346 2.396545,2.396545 -4.354431,4.355286 c -0.390625,0.390625 -0.390625,1.023437 0,1.414062 0.195313,0.195313 0.451172,0.292969 0.707032,0.292969 0.255859,0 0.511718,-0.09766 0.707031,-0.292969 l 4.354431,-4.355285 2.396484,2.396484 -4.354431,4.355286 c -0.390625,0.390625 -0.390625,1.023437 0,1.414062 0.195313,0.195313 0.451172,0.292969 0.707032,0.292969 0.255859,0 0.511718,-0.09766 0.707031,-0.292969 l 4.354431,-4.355285 0.631592,0.631591 c 0.190002,0.179993 0.440002,0.289978 0.710022,0.289978 0.259949,0 0.509949,-0.109985 0.699951,-0.289978 L 42.236207,26.089966 c 0.390014,-0.389954 0.390014,-1.019959 0,-1.409973 L 24.316223,6.77002 c -0.390014,-0.400025 -1.020019,-0.400025 -1.410034,0 L 4.5162349,25.149963 c -0.1800533,0.190003 -0.2900387,0.440003 -0.2900387,0.710022 0,0.26001 0.1099854,0.51001 0.2900387,0.700012 l 0.632019,0.632019 -4.35528515,4.354432 c -0.390625,0.390625 -0.390625,1.023437 0,1.414062 z"
     id="path835"
     inkscape:connector-curvature="0"
     sodipodi:nodetypes="ssccccsscccsssscccssccccsscccsccccccscccs" /><g
     style="fill:#ffffff;fill-opacity:1"
     id="g887"
     transform="matrix(0.52888931,0,0,0.52888931,13.27073,23.303362)" /><path
     d="m 16.9988,23.07951 -2.76822,-1.21349 a 1.0971909,1.0971909 0 0 0 -0.87775,2.00895 l 0.47618,0.20957 -0.47618,0.20956 a 1.0971909,1.0971909 0 0 0 0.43888,2.10222 1.0829274,1.0829274 0 0 0 0.43887,-0.0933 l 2.76822,-1.21349 a 1.0971909,1.0971909 0 0 0 0,-2.01006 z"
     id="path839"
     inkscape:connector-curvature="0"
     style="fill:#ffffff;fill-opacity:1;stroke-width:0.109719" /><path
     d="m 26.81865,27.03818 a 1.0971909,1.0971909 0 0 0 -1.04342,0.75706 v 0 c -0.0549,0.15251 -0.59139,1.48559 -2.63326,1.48559 -2.04187,0 -2.58279,-1.33308 -2.63326,-1.48559 v 0 a 1.0971909,1.0971909 0 0 0 -2.14172,0.34122 1.086219,1.086219 0 0 0 0.0724,0.38841 0.14373201,0.14373201 0 0 0 0,0.0165 l 0.01,0.0241 c 0.18982,0.49922 1.28372,2.90645 4.6894,2.90645 3.40568,0 4.49848,-2.40723 4.68939,-2.90645 0,-0.008 0.005,-0.0165 0.009,-0.0241 0.003,-0.008 0,-0.011 0.007,-0.0165 a 1.10926,1.10926 0 0 0 0.0713,-0.38841 1.0971909,1.0971909 0 0 0 -1.0961,-1.09828 z"
     id="path841"
     inkscape:connector-curvature="0"
     style="fill:#ffffff;fill-opacity:1;stroke-width:0.109719" /><path
     style="fill:#ffffff;fill-opacity:1;stroke-width:0.109719"
     inkscape:connector-curvature="0"
     id="path839-8"
     d="m 29.222582,24.981982 2.76822,1.21349 a 1.0971909,1.0971909 0 0 0 0.87775,-2.00895 l -0.47618,-0.20957 0.47618,-0.20956 a 1.0971909,1.0971909 0 0 0 -0.43888,-2.10222 1.0829274,1.0829274 0 0 0 -0.43887,0.0933 l -2.76822,1.21349 a 1.0971909,1.0971909 0 0 0 0,2.01006 z" /></svg>
